<svg xmlns="http://www.w3.org/2000/svg" viewBox="0 0 290.4 380.95"><g id="Calque_2" data-name="Calque 2"><g id="Calque_1-2" data-name="Calque 1"><path d="M169.24,290.8H128l-12.37-9.69a2.5,2.5,0,1,1,3.09-3.93l11,8.62h39.54a2.5,2.5,0,0,1,0,5Z"/><path d="M100.76,182.19a7.9,7.9,0,1,0-7.9-7.89A7.9,7.9,0,0,0,100.76,182.19Z"/><path d="M69.1,169.76a3.49,3.49,0,0,0,2.38-.94c.12-.11,11.93-11,25.07-13.33,12.44-2.24,24.82,8.77,24.94,8.88a3.5,3.5,0,0,0,4.7-5.18c-.6-.55-15-13.45-30.88-10.58-15.2,2.74-28.06,14.59-28.6,15.09a3.5,3.5,0,0,0,2.39,6.06Z"/><path d="M95.58,284.92a4.52,4.52,0,0,0,6.26-1.11c.39-.54,9.78-13.44,33.3-15.07a19.49,19.49,0,0,1,4,.93,27.32,27.32,0,0,0,6.09,1.26,27.32,27.32,0,0,0,6.09-1.26,19.49,19.49,0,0,1,4-.93c23.52,1.63,32.91,14.53,33.3,15.07a4.5,4.5,0,0,0,7.39-5.12c-.47-.69-12-17-40.08-18.93A21.41,21.41,0,0,0,148.8,261a31.15,31.15,0,0,1-3.6.89,31.15,31.15,0,0,1-3.6-.89,21.41,21.41,0,0,0-7.07-1.26c-28.1,1.94-39.61,18.24-40.09,18.93A4.5,4.5,0,0,0,95.58,284.92Z"/><path d="M125.94,237.67c.25.42,6.3,10.48,16.72,11.46.55.05,1.1.08,1.65.08.3,0,.59,0,.89,0s.59,0,.89,0c.55,0,1.1,0,1.64-.08,10.43-1,16.47-11,16.73-11.46a2.5,2.5,0,0,0-4.31-2.55c-.08.13-5.07,8.31-12.91,9a12.63,12.63,0,0,1-2,0,12.63,12.63,0,0,1-2,0c-7.85-.73-12.84-8.91-12.92-9a2.5,2.5,0,1,0-4.3,2.55Z"/><path d="M37.83,93.54a4.5,4.5,0,0,0,6.32-.69c9.38-11.7,13.55-27.59,15.21-36.1,7.1,2.81,20.9,7.36,41.16,10.11a268.22,268.22,0,0,0,44.68,2.07,268.22,268.22,0,0,0,44.68-2.07c20.25-2.75,34.05-7.3,41.16-10.11,1.66,8.51,5.83,24.4,15.21,36.1a4.5,4.5,0,0,0,7-5.63C241.78,72.89,239,50,239,49.79s0-.2-.06-.31-.06-.33-.11-.49-.12-.3-.18-.45a2,2,0,0,0-.13-.31.16.16,0,0,0,0-.07,3.42,3.42,0,0,0-.26-.4,4.15,4.15,0,0,0-.24-.34,3.19,3.19,0,0,0-.26-.26,4.21,4.21,0,0,0-.37-.36l-.25-.17a5.4,5.4,0,0,0-.47-.3l-.31-.13a4,4,0,0,0-.48-.2l-.34-.07a4.35,4.35,0,0,0-.52-.1h-.3c-.2,0-.4,0-.6,0H234a1.83,1.83,0,0,0-.25.06,3.48,3.48,0,0,0-.56.12,3.69,3.69,0,0,0-.42.17,2.26,2.26,0,0,0-.33.13c-.23.11-15.58,7.88-44.35,11.7a260.22,260.22,0,0,1-42.92,1.92A260.16,260.16,0,0,1,102.28,58c-28.77-3.82-44.13-11.59-44.35-11.7a2.26,2.26,0,0,0-.33-.13,3.69,3.69,0,0,0-.42-.17,3.48,3.48,0,0,0-.56-.12l-.25-.06h-.06c-.2,0-.4,0-.6,0h-.3a4.35,4.35,0,0,0-.52.1l-.34.07a4,4,0,0,0-.48.2l-.32.13c-.16.09-.31.2-.46.3L53,46.8a4.35,4.35,0,0,0-.38.36c-.08.09-.17.16-.25.26a4.15,4.15,0,0,0-.24.34c-.09.13-.19.26-.27.4l0,.07c0,.1-.08.21-.12.31a4.22,4.22,0,0,0-.18.45,4.31,4.31,0,0,0-.11.49c0,.11-.05.2-.07.31s-2.76,23.1-14.25,37.43A4.5,4.5,0,0,0,37.83,93.54Z"/><path d="M61.07,25.17c.19-.09,18.83-9.22,47.55-13.72A204.54,204.54,0,0,1,145.2,9.06a204.6,204.6,0,0,1,36.58,2.39c28.72,4.5,47.36,13.63,47.55,13.72a4.5,4.5,0,0,0,4-8.06c-.8-.4-19.83-9.75-49.82-14.5A214.17,214.17,0,0,0,145.2.06a214.17,214.17,0,0,0-38.32,2.55c-30,4.75-49,14.1-49.82,14.5a4.5,4.5,0,0,0,4,8.06Z"/><path d="M106.66,111.31a3.5,3.5,0,0,0,.64-7c-33.17-3.06-58.36,32.37-59.42,33.88a3.5,3.5,0,0,0,5.74,4C53.85,141.89,77.54,108.62,106.66,111.31Z"/><path d="M189.64,166.4a7.9,7.9,0,1,0,7.9,7.9A7.9,7.9,0,0,0,189.64,166.4Z"/><path d="M221.3,169.76a3.5,3.5,0,0,0,2.39-6.06c-.54-.5-13.4-12.35-28.6-15.09-15.88-2.87-30.28,10-30.89,10.58a3.5,3.5,0,0,0,4.71,5.18c.12-.11,12.49-11.12,24.94-8.88,13.14,2.37,25,13.22,25.07,13.33A3.47,3.47,0,0,0,221.3,169.76Z"/><path d="M236.78,142.23a3.5,3.5,0,0,0,2.87,1.49,3.46,3.46,0,0,0,2-.63,3.5,3.5,0,0,0,.87-4.87c-1.06-1.51-26.25-36.94-59.42-33.88a3.5,3.5,0,1,0,.64,7C212.86,108.62,236.54,141.89,236.78,142.23Z"/><path d="M290,186.09c-1-11.27-3.31-18-6.94-19.86a8.85,8.85,0,0,0-7.06-.44c-9.82,3.32-19.58,23.26-21.43,27.22a4,4,0,0,0,1.92,5.32,3.78,3.78,0,0,0,.9.29,4,4,0,0,0,4.42-2.21c4-8.58,11.88-21.39,16.75-23a1.75,1.75,0,0,1,.56-.11c3.15,4.46,6.21,32.73-1.85,51.29-3.81,8.76-9.38,13.3-16.56,13.47l-5.37.08h0l-5.64-1.88-5.62-1.87a.05.05,0,0,0,0,0l-2.2,6.61c-.21.63-21.33,63.31-51.63,86.41-6.62,5.05-18.63,12.75-18.71,12.8h0c-9.11,4.72-17-3-19.36-8.57-.56-1.33-.4-11.08-.22-17.91a0,0,0,0,1,0,0h5.09a7.22,7.22,0,0,0,7.32-6.82,7,7,0,0,0-7-7.18H145.23a0,0,0,0,0,0,0,0,0,0,0,0,0,0H133a7,7,0,0,0-7,7.18,7.22,7.22,0,0,0,7.32,6.82h5.08s0,0,0,0c.18,6.83.34,16.58-.22,17.91-2.31,5.58-10.25,13.29-19.36,8.57h0c-.07-.05-12.08-7.75-18.7-12.8-30.3-23.1-51.42-85.78-51.63-86.41l-2.2-6.61,0,0-5.63,1.87-5.63,1.88h0L29.67,238c-7.18-.17-12.75-4.71-16.56-13.47-8.06-18.56-5-46.83-1.85-51.29a1.71,1.71,0,0,1,.55.11c4.88,1.65,12.74,14.46,16.76,23A4,4,0,0,0,33,198.62a3.93,3.93,0,0,0,.9-.29A4,4,0,0,0,35.81,193c-1.85-4-11.61-23.9-21.44-27.22a8.83,8.83,0,0,0-7,.44c-3.63,1.9-6,8.59-6.94,19.86a104,104,0,0,0,2,31.09C6.61,235.45,16.24,245.7,29.52,246l6,.08s0,0,0,0c2.54,7.45,22.79,64.58,53.59,90.32a0,0,0,0,1,0,0L84.89,376a4.5,4.5,0,0,0,4,5l.49,0a4.5,4.5,0,0,0,4.47-4l3.64-34.07c0,.15,1.2.87,1.36,1l1.41,1c.94.66,1.88,1.32,2.83,2,1.86,1.28,3.76,2.51,5.68,3.68a87.9,87.9,0,0,0,11.76,6.1,65.88,65.88,0,0,0,12.67,3.91,80.49,80.49,0,0,0,12,1.07v0a80.49,80.49,0,0,0,12-1.07,65.88,65.88,0,0,0,12.67-3.91,87.79,87.79,0,0,0,11.75-6.1q2.9-1.75,5.69-3.68c1-.64,1.89-1.3,2.83-2l1.41-1c.16-.12,1.37-.84,1.35-1l3.65,34.07a4.5,4.5,0,0,0,4.47,4l.48,0a4.51,4.51,0,0,0,4-5l-4.23-39.49v0c30.81-25.74,51.06-82.87,53.6-90.32l0,0,6-.08c13.28-.32,22.9-10.57,27.15-28.84A103.64,103.64,0,0,0,290,186.09Z"/></g></g></svg>