<svg xmlns="http://www.w3.org/2000/svg" viewBox="0 0 290.4 380.9"><defs/><g data-name="Calque 2"><g data-name="Calque 1"><path d="M169.2 290.8H128l-12.4-9.7a2.5 2.5 0 113.1-4l11 8.7h39.6a2.5 2.5 0 010 5zM100.8 182.2a7.9 7.9 0 10-8-7.9 7.9 7.9 0 008 7.9z"/><path d="M69.1 169.8a3.5 3.5 0 002.4-1c.1 0 12-11 25-13.3 12.5-2.3 24.9 8.8 25 8.9a3.5 3.5 0 004.7-5.2c-.6-.6-15-13.5-30.9-10.6a65.3 65.3 0 00-28.6 15.1 3.5 3.5 0 002.4 6zM95.6 285a4.5 4.5 0 006.2-1.2c.4-.5 9.8-13.4 33.3-15a19.5 19.5 0 014 .9 27.3 27.3 0 006.1 1.2 27.3 27.3 0 006.1-1.2 19.5 19.5 0 014-1c23.5 1.7 33 14.6 33.3 15.1a4.5 4.5 0 007.4-5.1c-.5-.7-12-17-40-19a21.4 21.4 0 00-7.2 1.3 31.1 31.1 0 01-3.6.9 31.1 31.1 0 01-3.6-.9 21.4 21.4 0 00-7-1.3c-28.2 2-39.7 18.3-40.2 19a4.5 4.5 0 001.2 6.2zM126 237.7c.2.4 6.2 10.4 16.7 11.4l1.6.1H147.7c10.5-1 16.5-11 16.8-11.5a2.5 2.5 0 00-4.4-2.6c0 .1-5 8.3-12.9 9a12.6 12.6 0 01-2 0 12.6 12.6 0 01-2 0c-7.8-.7-12.8-8.9-12.9-9a2.5 2.5 0 10-4.3 2.6zM37.8 93.5a4.5 4.5 0 006.4-.6 87 87 0 0015.2-36.1c7 2.8 20.9 7.3 41.1 10a268.2 268.2 0 0044.7 2.1 268.2 268.2 0 0044.7-2c20.2-2.8 34-7.3 41.1-10.1a87 87 0 0015.2 36 4.5 4.5 0 007-5.6C241.8 73 239 50 239 49.8v-.3l-.2-.5c0-.1 0-.3-.2-.5a2 2 0 000-.3 3.4 3.4 0 00-.3-.4 4.2 4.2 0 00-.3-.4 3.2 3.2 0 00-.2-.2 4.2 4.2 0 00-.4-.4l-.3-.2a5.4 5.4 0 00-.4-.3l-.3-.1a4 4 0 00-.5-.2h-.4a4.3 4.3 0 00-.5-.2H234a1.8 1.8 0 00-.3 0 3.5 3.5 0 00-.5.2 3.7 3.7 0 00-.4.2 2.3 2.3 0 00-.4.1c-.2.1-15.5 7.9-44.3 11.7a260.2 260.2 0 01-43 2 260.2 260.2 0 01-42.8-2c-28.8-3.8-44.1-11.6-44.4-11.7a2.3 2.3 0 00-.3-.1 3.7 3.7 0 00-.4-.2 3.5 3.5 0 00-.6-.1h-1.2a4.3 4.3 0 00-.5 0h-.4a4 4 0 00-.4.3l-.4.1-.4.3-.3.2a4.3 4.3 0 00-.4.4l-.2.2a4.2 4.2 0 00-.3.4l-.2.4-.2.3a4.2 4.2 0 00-.1.5 4.3 4.3 0 00-.2.5v.3s-2.8 23-14.3 37.4a4.5 4.5 0 00.7 6.3zM61 25.2c.3-.1 18.9-9.2 47.6-13.7A204.5 204.5 0 01145.2 9a204.6 204.6 0 0136.6 2.4C210.5 16 229 25 229.3 25.1a4.5 4.5 0 004-8c-.8-.5-19.8-9.8-49.8-14.6A214.2 214.2 0 00145.2.1a214.2 214.2 0 00-38.3 2.5c-30 4.8-49 14.1-49.8 14.5a4.5 4.5 0 004 8zM106.7 111.3a3.5 3.5 0 00.6-7c-33.2-3-58.4 32.4-59.4 33.9a3.5 3.5 0 005.7 4c.3-.3 24-33.6 53-30.9zM189.6 166.4a7.9 7.9 0 108 7.9 7.9 7.9 0 00-8-7.9z"/><path d="M221.3 169.8a3.5 3.5 0 002.4-6.1 65.3 65.3 0 00-28.6-15c-15.9-3-30.3 10-30.9 10.5a3.5 3.5 0 004.7 5.2c.1-.1 12.5-11.2 25-9a58.7 58.7 0 0125 13.4 3.5 3.5 0 002.4 1zM236.8 142.2a3.5 3.5 0 002.8 1.5 3.5 3.5 0 002-.6 3.5 3.5 0 001-4.9c-1.1-1.5-26.3-37-59.5-33.9a3.5 3.5 0 10.6 7c29.2-2.7 52.8 30.6 53 31z"/><path d="M290 186c-1-11.2-3.3-18-7-19.8a8.8 8.8 0 00-7-.4c-9.8 3.3-19.6 23.3-21.4 27.2a4 4 0 001.9 5.3 3.8 3.8 0 00.9.3 4 4 0 004.4-2.2c4-8.6 11.9-21.4 16.8-23a1.8 1.8 0 01.5-.1c3.2 4.5 6.2 32.7-1.8 51.3-3.8 8.7-9.4 13.3-16.6 13.5h-5.4l-5.6-1.8-5.6-2-2.2 6.7c-.2.6-21.4 63.3-51.7 86.4-6.6 5-18.6 12.8-18.7 12.8-9 4.7-17-3-19.3-8.6-.6-1.3-.4-11-.2-17.9h5a7.2 7.2 0 007.4-6.8 7 7 0 00-7-7.2H133a7 7 0 00-7 7.2 7.2 7.2 0 007.3 6.8h5.1c.2 6.9.3 16.6-.2 18-2.3 5.5-10.3 13.2-19.4 8.5 0 0-12-7.7-18.7-12.8-30.3-23-51.4-85.8-51.6-86.4l-2.2-6.6-5.6 1.9L35 238l-5.3-.1c-7.2-.2-12.8-4.7-16.6-13.5-8-18.5-5-46.8-1.8-51.3a1.7 1.7 0 01.5.2c4.9 1.6 12.8 14.4 16.8 23a4 4 0 004.4 2.2 4 4 0 00.9-.3 4 4 0 002-5.3c-2-4-11.7-23.9-21.5-27.2a8.8 8.8 0 00-7 .4c-3.7 2-6 8.6-7 19.9a104 104 0 002 31c4.2 18.3 13.8 28.6 27.1 28.9h6c2.6 7.5 22.8 64.7 53.6 90.4L85 376a4.5 4.5 0 004 5h.5a4.5 4.5 0 004.4-4l3.7-34 1.3 1 1.5 1 2.8 2 5.7 3.6a87.9 87.9 0 0011.7 6.1 65.9 65.9 0 0012.7 4 80.5 80.5 0 0012 1 80.5 80.5 0 0012-1 65.9 65.9 0 0012.7-4 87.8 87.8 0 0011.7-6q3-1.8 5.7-3.8l2.8-2 1.4-1c.2 0 1.4-.8 1.4-1l3.6 34.1a4.5 4.5 0 004.5 4h.5a4.5 4.5 0 004-5l-4.2-39.5c30.8-25.7 51-82.9 53.6-90.3h6c13.3-.4 22.9-10.7 27.1-29a103.6 103.6 0 002-31.1z"/></g></g></svg>