<?xml version="1.0" encoding="utf-8"?>
<!-- Generator: Adobe Illustrator 24.2.0, SVG Export Plug-In . SVG Version: 6.00 Build 0)  -->
<svg version="1.1" id="Calque_1" xmlns="http://www.w3.org/2000/svg" xmlns:xlink="http://www.w3.org/1999/xlink" x="0px" y="0px"
	 viewBox="0 0 93 92" style="enable-background:new 0 0 93 92;" xml:space="preserve">
<style type="text/css">
	.st0{fill-rule:evenodd;clip-rule:evenodd;fill:#FFFFFF;}
</style>
<g>
	<path class="st0" d="M34.6,79c0,7.8,5.1,12.3,11.5,12.3c0,0,0,0,0,0c6.3,0,11.5-6,11.6-12.3L46,67.3L34.6,79z"/>
	<path class="st0" d="M30.5,12.8c-2.1-2.2-5-3.5-8.1-3.5c-3.1-0.1-6,1.1-8.2,3.2c-4.6,4.4-4.7,11.7-0.4,16.3l1.7,1.8l24.3,0.1
		l3.9-3.9L30.5,12.8z M78.4,62.7l-1.7-1.8l-24.3-0.1l-3.9,3.9l13.3,13.9c4.4,4.6,11.7,4.7,16.3,0.4C82.6,74.6,82.7,67.3,78.4,62.7"
		/>
	<path class="st0" d="M79.2,34.3L55.9,57.3l24.7,0.1h0.1c3.1,0,5.9-1.2,8.1-3.3c2.2-2.1,3.4-5.1,3.4-8.1
		C92.2,39.6,87.2,34.2,79.2,34.3 M11.6,34L11.6,34c-3.1,0-6,1.2-8.2,3.3C1.2,39.5,0,42.5,0,45.5c0,3.1,0.6,11.6,13.2,11.6l23.1-22.9
		C36.3,34.2,11.6,34,11.6,34z"/>
	<path class="st0" d="M78.9,13.2c-4.5-4.5-11.8-4.5-16.3-0.1L13.4,61.9c-4.5,4.5-4.5,11.8-0.1,16.3c4.5,4.5,11.8,4.5,16.3,0.1
		l49.1-48.7C83.3,25,83.3,17.7,78.9,13.2"/>
	<path class="st0" d="M58.6,12.3C58.6,4.5,53.5,0,47.1,0c0,0,0,0,0,0c-6.3,0-11.5,6-11.6,12.3L47.1,24C47.1,24,58.6,12.3,58.6,12.3z
		"/>
</g>
</svg>
