<svg xmlns="http://www.w3.org/2000/svg" id="Calque_1" x="0" y="0" version="1.1" viewBox="0 0 93 92" xml:space="preserve"><defs/><style>.st0{fill-rule:evenodd;clip-rule:evenodd;fill:#fff}</style><path d="M34.6 79c0 7.8 5.1 12.3 11.5 12.3 6.3 0 11.5-6 11.6-12.3L46 67.3 34.6 79zM30.5 12.8c-2.1-2.2-5-3.5-8.1-3.5-3.1-.1-6 1.1-8.2 3.2-4.6 4.4-4.7 11.7-.4 16.3l1.7 1.8 24.3.1 3.9-3.9-13.2-14zm47.9 49.9l-1.7-1.8-24.3-.1-3.9 3.9 13.3 13.9c4.4 4.6 11.7 4.7 16.3.4 4.5-4.4 4.6-11.7.3-16.3M79.2 34.3l-23.3 23 24.7.1h.1c3.1 0 5.9-1.2 8.1-3.3C91 52 92.2 49 92.2 46c0-6.4-5-11.8-13-11.7M11.6 34c-3.1 0-6 1.2-8.2 3.3C1.2 39.5 0 42.5 0 45.5c0 3.1.6 11.6 13.2 11.6l23.1-22.9-24.7-.2zM78.9 13.2c-4.5-4.5-11.8-4.5-16.3-.1L13.4 61.9c-4.5 4.5-4.5 11.8-.1 16.3 4.5 4.5 11.8 4.5 16.3.1l49.1-48.7c4.6-4.6 4.6-11.9.2-16.4M58.6 12.3C58.6 4.5 53.5 0 47.1 0c-6.3 0-11.5 6-11.6 12.3L47.1 24l11.5-11.7z" class="st0"/></svg>