<?xml version="1.0" encoding="utf-8"?>
<!-- Generator: Adobe Illustrator 24.0.1, SVG Export Plug-In . SVG Version: 6.00 Build 0)  -->
<svg version="1.1" id="Calque_1" xmlns="http://www.w3.org/2000/svg" xmlns:xlink="http://www.w3.org/1999/xlink" x="0px" y="0px"
	 viewBox="0 0 24 24" style="enable-background:new 0 0 24 24;" xml:space="preserve">
<style type="text/css">
	.st0{fill:#FFFFFF;}
</style>
<path class="st0" d="M20.5,13.5l3.5-0.9L22.1,5l-3.5,0.9l0.2,0.8c-1.8,0.2-2.5-0.2-4.5-1.2c-0.5-0.3-1-0.4-1.4-0.4
	c-0.6,0-1.1,0.3-1.5,0.7l-0.5,0.6c-2-1.5-3.2-0.4-4.5,0.1C6,6.5,5.6,6.5,5.3,6.6l0.2-0.7L1.9,5L0,12.6l3.5,0.9l0.2-0.7
	C4,12.8,5.2,13,5.4,13.1c-0.6,1.1,0,2.4,1.2,2.5c0.2,0.5,0.7,0.9,1.3,1c0.2,0.5,0.7,0.9,1.3,1c0.3,0.8,1.3,1.3,2.2,0.9
	c0.4,0.4,0.8,0.5,1.4,0.5c0.7,0,1.3-0.3,1.7-1c0.6-0.1,1.1-0.5,1.3-1c0.6-0.1,1-0.5,1.3-1c0.8-0.2,1.4-0.8,1.5-1.6
	c0-0.3,0-0.6-0.2-0.9c0.3-0.2,1.4-0.6,1.9-0.8C20.3,12.6,20.5,13.5,20.5,13.5z M21.2,6.5l1.3,5.2L21.4,12L20,6.8
	C20,6.8,21.2,6.5,21.2,6.5z M2.6,12l-1.2-0.3l1.3-5.2L4,6.8L2.6,12z M6.4,14.5c-0.3-0.2-0.3-0.6-0.1-0.9l0.6-0.7
	c0.2-0.3,0.7-0.4,1-0.1c0.3,0.2,0.3,0.6,0.1,0.9l-0.6,0.7C7.1,14.6,6.7,14.7,6.4,14.5z M7.7,15.5c-0.3-0.2-0.3-0.6-0.1-0.9l0.6-0.8
	c0.3-0.3,0.7-0.4,1-0.1c0.3,0.2,0.3,0.6,0.1,0.9l-0.6,0.8C8.5,15.6,8,15.7,7.7,15.5z M9.1,16.5c-0.3-0.2-0.3-0.6-0.1-0.9l0.6-0.7
	c0.3-0.3,0.7-0.4,1-0.1c0.3,0.2,0.3,0.6,0.1,0.9L10,16.3C9.8,16.6,9.4,16.7,9.1,16.5z M12,16.6l-0.6,0.8c-0.3,0.3-0.7,0.4-1,0.1
	c-0.3-0.2-0.3-0.6-0.1-0.9l0.6-0.8c0.3-0.3,0.7-0.4,1-0.1C12.2,15.9,12.2,16.3,12,16.6z M13.3,17.7c-0.1,0.1-0.3,0.1-0.4,0.1
	c-0.2,0-0.3-0.1-0.4-0.2l0.4-0.4c0.2-0.2,0.3-0.4,0.3-0.6l0.2,0.2C13.6,17.1,13.6,17.5,13.3,17.7z M17.1,14.7
	c-0.3,0.2-0.7,0.2-1-0.1l-1.9-1.7c-0.2-0.1-0.4,0.1-0.2,0.2l1.9,1.6c0.2,0.3,0.2,0.7-0.1,0.9c-0.3,0.2-0.7,0.2-1-0.1l-1.5-1.3
	c-0.2-0.1-0.4,0.1-0.2,0.2l1.5,1.3c0.2,0.3,0.2,0.7-0.1,0.9c-0.3,0.2-0.7,0.2-1-0.1l-0.4-0.4l0-0.2c-0.1-0.8-0.7-1.4-1.4-1.4
	c-0.2-0.5-0.7-0.9-1.3-1c-0.2-0.5-0.7-0.9-1.3-1c-0.4-1-1.6-1.3-2.5-0.7c-0.4-0.1-1.9-0.4-2.4-0.6l0.8-3.2c0.8,0,1.7-0.1,2.9-0.7
	c0.9-0.4,1.3-0.6,2.1,0c-0.5,0.5-1,1-1.6,1.3C7.8,8.9,7.6,9.5,7.8,10c0.2,0.7,0.9,1.3,2,1.3s2.9-1,3.3-1.5c1.5,1.4,2.9,2.7,4.1,3.8
	C17.5,14.1,17.4,14.5,17.1,14.7z M17.7,12.1c-0.8-0.8-2.7-2.5-3.4-3.1C14,8.7,13.6,8.4,13,8.4c-0.5,0-0.9,0.3-1.1,0.5
	c-0.6,0.5-2,1.4-2.6,0.9c1.2-0.8,2.2-1.9,3.2-3.1c0.2-0.3,0.6-0.2,1.1,0c2.2,1.1,3,1.7,5.5,1.4l0.8,3C19.4,11.3,18.1,11.9,17.7,12.1
	z"/>
</svg>
