<?xml version="1.0" encoding="utf-8"?>
<!-- Generator: Adobe Illustrator 24.0.1, SVG Export Plug-In . SVG Version: 6.00 Build 0)  -->
<svg version="1.1" id="Calque_1" xmlns="http://www.w3.org/2000/svg" xmlns:xlink="http://www.w3.org/1999/xlink" x="0px" y="0px"
	 viewBox="0 0 24 24" style="enable-background:new 0 0 24 24;" xml:space="preserve">
<style type="text/css">
	.st0{fill-rule:evenodd;clip-rule:evenodd;fill:#FFFFFF;}
</style>
<path class="st0" d="M22,21c0.5,0,1,0.2,1.4,0.6C23.8,22,24,22.5,24,23v1h-6v-1c0-1.1,0.9-2,2-2H22z M15,21c0.5,0,1,0.2,1.4,0.6
	C16.8,22,17,22.5,17,23v1h-6v-1c0-1.1,0.9-2,2-2H15z M22,22h-2c-0.6,0-1,0.4-1,1h4C23,22.4,22.5,22,22,22z M15,22h-2
	c-0.6,0-1,0.4-1,1h4C16,22.4,15.5,22,15,22z M8.2,20.8C8.2,21.5,7.7,22,7,22c-0.6,0-1.2-0.5-1.3-1.2l-0.4-4l-0.3,4
	C5,21.5,4.4,22,3.8,22c-0.7,0-1.2-0.5-1.3-1.2l-0.3-6.5l-0.3,0.6c-0.2,0.4-0.8,0.6-1.3,0.5c-0.4-0.2-0.7-0.5-0.7-1
	c0-0.1,0-0.2,0-0.3L1.2,10c0.2-0.6,0.7-1,1.4-1h4.1c0.5,0,1-0.2,1.3-0.3c0.7-0.4,2.4-1.4,3.1-1.8c0.4-0.2,0.9-0.1,1.2,0.2
	c0.3,0.4,0.3,0.9-0.1,1.3l-3,2.9c-0.4,0.4-0.6,0.8-0.6,1.4C8.5,14.1,8.2,20.8,8.2,20.8z M2.5,10c-0.2,0-0.3,0.1-0.4,0.3
	c-0.3,1-1,3.7-1.1,4.1l1.5-2.6c0.2-0.3,0.6-0.2,0.6,0.2l0.3,8.8C3.5,21,4,21,4,20.7c0,0,0.3-3.4,0.3-3.9c0-0.6,0.4-1,1-1
	c0.5,0,1,0.4,1,1c0,0.3,0.3,3.4,0.4,3.9c0,0.4,0.5,0.3,0.5,0c0,0,0.2-6.7,0.3-8.1c0-0.8,0.4-1.5,0.9-2.1l3-2.9
	c-0.7,0.5-2.4,1.5-3.1,1.9C8,9.8,7.3,10,6.6,10C6.6,10,2.5,10,2.5,10z M21,16c-1.3,0-2.4,1.1-2.4,2.4c0,1.3,1.1,2.4,2.4,2.4
	s2.4-1.1,2.4-2.4C23.4,17.1,22.3,16,21,16z M14,16c-1.3,0-2.4,1.1-2.4,2.4c0,1.3,1.1,2.4,2.4,2.4s2.4-1.1,2.4-2.4
	C16.4,17.1,15.3,16,14,16z M21,17c0.8,0,1.4,0.6,1.4,1.4c0,0.8-0.6,1.4-1.4,1.4s-1.4-0.6-1.4-1.4C19.6,17.6,20.2,17,21,17z M14,17
	c0.8,0,1.4,0.6,1.4,1.4c0,0.8-0.6,1.4-1.4,1.4c-0.8,0-1.4-0.6-1.4-1.4C12.6,17.6,13.2,17,14,17z M24,15H9.3v-1H17v-1h3v1h3V1H1v7
	l-1,3V0h24V15z M18,9h-4V8h4V9z M5.3,4C4,4,3,5,3,6.3s1,2.3,2.3,2.3s2.3-1,2.3-2.3S6.6,4,5.3,4z M5.3,5C6,5,6.6,5.6,6.6,6.3
	S6,7.6,5.3,7.6C4.5,7.6,4,7,4,6.3S4.5,5,5.3,5z M21,7h-7V6h7V7z M21,5h-7V4h7V5z"/>
</svg>
