<svg xmlns="http://www.w3.org/2000/svg" viewBox="0 0 24 24"><defs/><path fill="#fff" d="M12 23.6c-7.8 0-12-4.9-12-11.2C0 5.8 4.8.4 13.3.4 19.5.4 24 4.4 24 10c0 8.7-10.3 11-9.8 6a4.7 4.7 0 01-4.1 2.4c-2.5 0-4.1-1.8-4.1-4.8 0-4.4 2.9-8.2 6.4-8.2 1.7 0 2.8.9 3.3 2.2l.5-1.6h2.3l-2.3 8.5c-.6 2.7 1.4 2.7 3.1 1.3 3.3-2.6 3.5-9.3-1-12.1-4.8-3-15.8-1.2-15.8 8.6 0 5.6 3.9 9.4 9.8 9.4 3.4 0 5.5-.9 7.3-1.9l1.2 1.7c-1.7.9-4.4 2.1-8.8 2.1zM9.7 9.3c-.7 1.3-1.2 3.1-1.2 4.4 0 3.6 3.5 3.6 5.3.2.7-1.4 1.2-3.2 1.2-4.5-.1-2.8-3.6-3.4-5.3-.1z"/></svg>